<svg version="1.1" id="Layer_1" xmlns="http://www.w3.org/2000/svg" xmlns:xlink="http://www.w3.org/1999/xlink" x="0px" y="0px"
	 width="100%" viewBox="0 0 1024 1024" enable-background="new 0 0 1024 1024" xml:space="preserve">
<path fill="#000000" opacity="1.000000" stroke="none" 
	d="
M341.697510,486.999939 
	C341.694397,408.846893 341.691711,331.193848 341.688782,253.540817 
	C341.688202,238.346970 349.145294,230.824020 364.329773,230.823120 
	C463.645691,230.817154 562.961609,230.824600 662.277527,230.840027 
	C676.446411,230.842239 684.299255,238.638977 684.299866,252.687836 
	C684.304077,348.337708 684.300720,443.987579 684.289185,539.637451 
	C684.287415,554.114868 677.013916,561.348083 662.422485,561.349548 
	C562.773315,561.359680 463.124115,561.359253 363.474915,561.346252 
	C349.030029,561.344360 341.718018,553.973328 341.706482,539.490906 
	C341.692719,522.160583 341.699799,504.830292 341.697510,486.999939 
M670.732239,467.500031 
	C670.736450,411.508698 670.692688,355.517242 670.833435,299.526245 
	C670.845093,294.902649 669.801392,293.160828 664.791992,293.167755 
	C563.640869,293.307648 462.489410,293.310822 361.338226,293.186890 
	C356.475403,293.180939 355.194061,294.644470 355.202301,299.413391 
	C355.340668,379.401062 355.302094,459.389008 355.314209,539.376892 
	C355.315308,546.598694 356.545563,547.887085 363.728577,547.888489 
	C463.213470,547.908020 562.698364,547.909668 662.183228,547.894409 
	C669.411743,547.893311 670.709106,546.582825 670.716370,539.489319 
	C670.740540,515.826233 670.729431,492.163147 670.732239,467.500031 
M597.500000,279.874817 
	C619.999939,279.866028 642.500427,279.767670 664.999207,279.927612 
	C669.255676,279.957855 671.035217,278.836548 670.801392,274.313995 
	C670.474854,267.997864 670.729370,261.651733 670.732056,255.318436 
	C670.736328,245.403732 669.684204,244.321213 659.980530,244.321228 
	C561.814453,244.321472 463.648315,244.324203 365.482208,244.328033 
	C364.149048,244.328079 362.806946,244.256668 361.484436,244.381897 
	C357.618439,244.748001 355.342163,246.708221 355.338959,250.803436 
	C355.332367,259.136627 355.407959,267.471008 355.281891,275.802368 
	C355.234894,278.906494 356.626007,279.986481 359.502563,279.854492 
	C361.165192,279.778168 362.834991,279.866028 364.501556,279.866119 
	C441.834381,279.869659 519.167175,279.871704 597.500000,279.874817 
z"/>
<path fill="#000000" opacity="1.000000" stroke="none" 
	d="
M613.005066,756.142273 
	C611.149963,779.998962 598.921692,791.775208 575.284973,794.447815 
	C560.902527,796.073975 546.695435,793.799438 532.407043,794.203003 
	C529.553833,794.283569 528.572083,793.055481 529.275391,790.147095 
	C531.091003,782.638855 530.943726,774.940247 530.942871,767.298584 
	C530.939331,737.992859 530.850647,708.686584 530.627747,679.381836 
	C530.592651,674.763489 529.700623,670.151611 529.192078,665.417786 
	C529.606750,664.464172 530.611633,664.125854 531.593628,664.158691 
	C545.552063,664.625000 559.436279,661.677429 573.458191,663.706299 
	C598.348328,667.307922 610.560974,693.681091 596.173828,713.098511 
	C592.792908,717.661560 587.834412,720.049866 582.201233,723.532898 
	C598.954407,728.767517 611.719116,737.007751 613.005066,756.142273 
M548.339233,768.366699 
	C548.677307,773.335205 549.043518,778.302124 549.339233,783.273132 
	C549.453369,785.191223 550.201416,786.348694 552.238525,786.642395 
	C561.225281,787.938232 570.095459,788.020081 578.717285,784.579712 
	C585.133789,782.019348 589.527771,777.519531 591.692322,770.983337 
	C594.090515,763.741882 594.579407,756.349365 592.784729,748.886230 
	C590.245728,738.328003 583.179382,732.620117 572.886841,730.310364 
	C566.265564,728.824463 559.681580,729.680176 553.049561,730.158142 
	C549.391907,730.421753 548.225647,731.953613 548.276733,735.482605 
	C548.430786,746.118408 548.336792,756.757874 548.339233,768.366699 
M570.731445,719.443420 
	C586.750977,711.312805 586.132446,687.542786 578.951660,677.790283 
	C576.266602,674.143738 572.759460,671.704407 568.393005,670.773438 
	C562.979553,669.619202 557.487854,669.952637 552.032471,670.681885 
	C549.233276,671.055969 548.273682,672.696716 548.294067,675.519287 
	C548.394714,689.482056 548.422302,703.447021 548.264099,717.408813 
	C548.224670,720.891113 549.592285,722.316284 552.880371,722.235840 
	C558.693542,722.093567 564.542664,722.177673 570.731445,719.443420 
z"/>
<path fill="#000000" opacity="1.000000" stroke="none" 
	d="
M404.839294,700.783386 
	C409.996368,701.919800 414.072174,704.643555 419.037323,706.594788 
	C418.977051,701.838013 421.765839,701.356812 425.433136,701.578979 
	C429.862732,701.847351 434.320953,701.642578 438.639587,701.642578 
	C440.111908,705.628174 438.355896,708.797058 438.140320,712.035522 
	C436.290497,739.819336 437.745667,767.629456 437.277802,795.421143 
	C437.210663,799.410156 437.228394,803.376953 436.539734,807.358582 
	C432.856750,828.652405 418.966003,841.038086 397.352905,842.275391 
	C385.970856,842.927002 375.225525,840.528748 364.772308,836.220398 
	C361.654724,834.935486 359.914215,833.023499 359.703613,829.592163 
	C359.437622,825.258545 357.707214,821.034119 358.108154,816.611816 
	C360.723694,816.336060 361.108795,818.100098 361.904297,819.220825 
	C371.434113,832.647461 390.149170,838.409180 405.476135,832.577881 
	C410.122986,830.809937 414.116882,828.184448 416.354187,823.557068 
	C421.237579,813.456543 421.008545,802.750977 420.391296,791.199585 
	C414.152740,793.190735 408.559204,795.150024 402.612274,795.728516 
	C368.748901,799.022949 345.213837,776.726501 349.315826,741.186401 
	C351.996674,717.959412 364.955627,704.359741 385.592285,700.319458 
	C391.845459,699.095215 398.176086,699.210449 404.839294,700.783386 
M376.046753,775.417664 
	C385.685089,789.026489 402.157684,792.532227 416.613983,784.242004 
	C419.560028,782.552612 420.813873,780.591614 420.780396,777.122864 
	C420.611664,759.650818 420.606537,742.176086 420.727600,724.703491 
	C420.751526,721.248047 419.602905,718.626953 417.281860,716.252075 
	C409.550873,708.341553 400.209717,705.501770 389.482483,707.777832 
	C378.462158,710.116028 372.407776,717.913940 369.684143,728.128113 
	C365.352417,744.372803 367.207275,760.077454 376.046753,775.417664 
z"/>
<path fill="#000000" opacity="1.000000" stroke="none" 
	d="
M164.180695,749.253662 
	C176.489227,722.047974 188.597076,695.167114 200.813629,668.335754 
	C202.231339,665.222046 202.811737,661.395020 208.047195,661.492554 
	C213.077850,661.586243 213.453278,665.327759 214.759766,668.269531 
	C229.765823,702.058044 244.591721,735.926819 259.634369,769.698975 
	C263.194519,777.691956 267.382690,785.405273 271.734589,794.157471 
	C263.859314,794.157471 256.630341,794.228333 249.404236,794.115540 
	C247.156876,794.080505 247.035583,792.175110 246.988556,790.440491 
	C246.620438,776.863342 238.393326,766.145081 233.742218,754.127441 
	C232.937653,752.048706 230.901871,752.049744 229.045853,752.047119 
	C212.715714,752.023621 196.385498,752.038635 180.055496,751.982239 
	C177.451004,751.973267 175.637436,752.774658 174.568390,755.331360 
	C170.714325,764.548767 166.702957,773.700562 162.867523,782.925598 
	C162.110825,784.745483 161.286591,786.849854 161.506348,788.702942 
	C162.094910,793.665649 159.753647,794.785461 155.474625,794.333984 
	C151.589401,793.924072 147.584641,794.933411 143.129883,793.430176 
	C151.488129,779.219604 157.060349,764.087646 164.180695,749.253662 
M226.134872,737.257507 
	C218.991333,721.067078 211.847778,704.876648 204.704239,688.686218 
	C204.225983,688.704102 203.747726,688.721985 203.269470,688.739868 
	C195.643829,706.431885 188.018204,724.123962 180.214081,742.230103 
	C196.556503,742.230103 211.887970,742.230103 227.024933,742.230103 
	C227.797150,740.291931 226.784515,739.186096 226.134872,737.257507 
z"/>
<path fill="#000000" opacity="1.000000" stroke="none" 
	d="
M702.398804,745.999817 
	C702.284851,762.121277 702.706360,777.720032 704.868469,793.973999 
	C698.060852,794.497559 691.720520,794.458679 685.278564,793.949036 
	C684.935181,792.111633 684.665588,790.669128 684.406555,789.282959 
	C682.772888,788.373901 681.822327,789.640320 680.755859,790.257629 
	C670.275818,796.324158 659.101807,797.500183 647.492798,794.719788 
	C635.683167,791.891357 628.214661,783.949829 626.752441,773.133606 
	C624.964355,759.906555 629.617981,749.973999 640.660889,743.597839 
	C650.860413,737.708496 662.143066,735.782593 673.648438,734.722839 
	C674.807007,734.616150 675.979431,734.667725 677.140625,734.581055 
	C686.074707,733.914185 687.185547,732.412659 685.416809,723.441345 
	C682.871216,710.530518 672.755432,704.652466 658.007874,707.617310 
	C652.222595,708.780396 646.975830,711.247009 642.144958,714.640198 
	C640.557373,715.755249 639.191528,717.356995 637.003723,717.441223 
	C637.037720,710.652832 642.047180,703.651001 648.111389,701.883423 
	C658.393433,698.886597 668.865417,698.644165 679.237061,700.810974 
	C694.335999,703.965454 702.294067,714.147766 702.391846,729.518921 
	C702.425781,734.845703 702.398132,740.172852 702.398804,745.999817 
M685.820801,750.594360 
	C685.806763,748.931335 685.769043,747.268005 685.784607,745.605286 
	C685.805725,743.345215 684.745361,742.260071 682.455444,742.257812 
	C673.422424,742.249084 664.489685,742.808594 656.225098,746.989685 
	C646.109436,752.107178 642.821045,762.368164 646.326721,775.455078 
	C648.913452,785.111633 657.323364,789.258118 668.993835,787.656311 
	C679.434814,786.223267 685.806152,778.990234 685.821960,768.536438 
	C685.830505,762.881165 685.820374,757.225830 685.820801,750.594360 
z"/>
<path fill="#000000" opacity="1.000000" stroke="none" 
	d="
M813.583557,775.373962 
	C820.679871,785.351868 830.206055,789.546204 841.873718,788.493835 
	C852.969116,787.493042 861.886414,782.140015 868.793823,772.557617 
	C869.470032,777.964661 864.451965,789.593506 860.895691,791.003296 
	C841.689270,798.617432 822.754700,798.998047 805.215881,786.785095 
	C790.735229,776.701843 786.292664,761.585876 786.844360,744.763977 
	C787.560425,722.931458 801.984863,704.345825 822.042236,700.527405 
	C853.670105,694.506348 874.960327,715.546265 875.646545,745.348999 
	C875.728455,748.905457 873.152771,748.283997 871.125305,748.292603 
	C858.970093,748.344482 846.814575,748.316101 834.659119,748.316528 
	C826.666504,748.316833 818.671997,748.422302 810.682129,748.274841 
	C807.216003,748.210876 805.873291,749.423706 806.208801,752.967896 
	C806.959167,760.894226 809.294189,768.256348 813.583557,775.373962 
M827.889648,707.221252 
	C820.834229,707.776428 815.886108,711.651978 812.167236,717.344421 
	C809.027893,722.149719 807.346985,727.539429 806.434204,733.149597 
	C805.467773,739.088623 806.139771,739.822021 812.136902,739.836548 
	C824.099121,739.865601 836.061462,739.844421 848.023743,739.853821 
	C857.745667,739.861450 857.933044,739.618530 855.371521,730.076416 
	C851.213684,714.587952 842.674255,707.242798 827.889648,707.221252 
z"/>
<path fill="#000000" opacity="1.000000" stroke="none" 
	d="
M739.258240,700.893799 
	C747.765442,698.742310 755.750305,699.166260 763.782593,701.564575 
	C767.893860,702.792114 769.960449,705.062866 770.058350,709.289612 
	C770.133362,712.523132 770.787292,715.782104 769.872742,718.984497 
	C767.738892,718.922852 767.566833,717.317505 766.954285,716.268982 
	C762.671265,708.936951 756.250244,706.112854 747.981689,707.148010 
	C740.356323,708.102661 736.204224,714.495178 738.178162,722.004150 
	C739.656921,727.629517 743.605042,731.491394 747.594910,735.257690 
	C753.891174,741.200867 760.990112,746.290283 766.676575,752.881104 
	C771.798035,758.817017 775.805603,765.307068 774.664917,773.636047 
	C772.817505,787.125977 763.224304,795.480591 748.346497,796.088684 
	C739.874573,796.434875 731.860779,794.245728 724.545227,789.751343 
	C721.821045,788.077637 720.484924,785.976196 721.297241,782.699097 
	C722.299316,778.656494 720.876526,774.215637 722.725586,770.062988 
	C725.728271,771.378357 725.446899,773.929443 726.240173,775.797424 
	C730.390381,785.570129 740.572449,790.876160 749.674011,787.845764 
	C757.095642,785.374756 760.475342,778.656860 758.011230,771.204529 
	C756.381042,766.274109 752.949585,762.651733 749.176819,759.312256 
	C743.812195,754.564026 738.250916,750.025574 733.067139,745.089233 
	C727.933838,740.200806 723.747803,734.551453 722.864136,727.208435 
	C721.355591,714.672729 726.825012,705.830933 739.258240,700.893799 
z"/>
<path fill="#000000" opacity="1.000000" stroke="none" 
	d="
M490.669952,707.292236 
	C484.053833,706.268860 478.149048,706.544128 474.434174,712.660034 
	C471.416565,717.628174 472.822601,724.302734 477.772491,730.081238 
	C483.766144,737.078247 491.330841,742.379456 497.930969,748.725281 
	C500.829987,751.512634 503.472717,754.484192 505.658264,757.845825 
	C515.103577,772.373718 508.388855,790.203674 491.646790,794.755432 
	C480.422516,797.807007 469.914185,795.665833 459.994324,789.824768 
	C457.569611,788.397095 456.366150,786.595886 456.653961,783.746033 
	C457.097504,779.353699 456.056793,774.787170 458.055145,770.461731 
	C460.882538,771.022522 460.480011,773.542542 461.177551,775.163391 
	C465.128937,784.344971 472.557861,789.409546 481.275909,788.622253 
	C491.855164,787.666992 497.119537,777.993286 492.123718,768.591064 
	C489.242065,763.167786 484.536865,759.377319 480.033936,755.417419 
	C475.659790,751.570923 470.984161,748.003845 467.013245,743.776489 
	C460.519470,736.863525 456.340820,728.893311 458.439636,718.883423 
	C460.604889,708.556641 467.426086,701.645630 477.932678,700.065918 
	C485.560181,698.919189 493.188416,699.289368 500.564301,702.183960 
	C503.774902,703.443970 505.625366,705.273499 505.214722,708.848572 
	C504.826294,712.230164 506.398590,715.666748 504.581757,720.762146 
	C501.342285,713.878601 497.544678,709.013245 490.669952,707.292236 
z"/>
<path fill="#000000" opacity="1.000000" stroke="none" 
	d="
M313.154663,714.119263 
	C303.351776,718.526917 299.136261,725.069214 300.035065,736.141418 
	C301.296906,751.685913 299.739868,767.390137 301.185669,783.008423 
	C301.487579,786.269714 302.913635,789.460022 302.050385,793.391357 
	C295.532928,793.894104 289.004700,794.351807 281.828369,793.176086 
	C282.222656,788.177551 282.736877,783.303955 282.970642,778.416992 
	C284.123352,754.319824 284.719147,730.217285 281.957123,706.185242 
	C281.490326,702.123413 282.687225,700.669617 286.650848,700.849243 
	C290.470459,701.022278 294.309235,701.017090 298.129730,700.856384 
	C301.781494,700.702637 303.006439,702.146301 301.995209,705.657532 
	C301.447906,707.557983 300.878296,709.503967 301.704285,711.615479 
	C304.096893,711.497375 305.400635,709.584595 307.098877,708.390381 
	C316.156006,702.021118 325.614441,697.012817 337.246216,699.780090 
	C343.029694,701.156067 343.427917,701.864563 341.756073,707.660156 
	C340.674042,711.411072 340.483978,715.481812 337.712311,719.700317 
	C331.524323,708.505249 322.949829,708.966736 313.154663,714.119263 
z"/>
<path fill="#000000" opacity="1.000000" stroke="none" 
	d="
M578.920776,467.851440 
	C568.350342,467.868134 568.344360,467.868134 568.336243,477.973694 
	C568.328430,487.637878 568.432983,497.303589 568.281738,506.965424 
	C568.229187,510.324005 569.211182,512.040955 572.807861,511.679321 
	C574.292297,511.530060 575.821045,511.515930 577.301025,511.687347 
	C581.195679,512.138428 583.641663,510.817657 585.684814,507.169281 
	C590.576965,498.433746 598.684814,495.440033 608.223145,496.929413 
	C617.786560,498.422699 623.433960,504.471313 625.669067,513.851807 
	C627.845703,522.986877 622.921082,533.273987 614.162109,537.625488 
	C605.094543,542.130249 593.205811,540.285034 588.131836,532.167725 
	C584.230469,525.926270 579.611145,524.184937 572.946899,524.981262 
	C569.990173,525.334656 566.953735,525.102600 563.956726,525.020264 
	C557.795471,524.851135 555.088684,522.296448 555.033936,516.117126 
	C554.912781,502.455017 554.981689,488.791199 554.974548,475.128082 
	C554.970825,467.966339 554.933960,467.922974 547.726379,467.894440 
	C539.895447,467.863464 532.057861,468.023926 524.236694,467.734589 
	C520.838257,467.608887 519.811279,468.776428 519.889709,471.980133 
	C520.048706,478.474915 520.158203,484.982208 519.922119,491.471069 
	C519.779663,495.386688 520.952698,497.715607 524.539673,499.828674 
	C532.047974,504.251709 535.683105,511.433868 534.729919,520.060974 
	C533.672546,529.631165 528.349792,536.402588 518.824829,539.170227 
	C507.948730,542.330383 497.606812,537.082214 492.800079,526.186768 
	C488.712158,516.920532 492.090637,505.363190 501.168823,500.042664 
	C505.120117,497.726929 506.320557,495.110413 506.108887,490.846283 
	C505.811890,484.862549 505.969757,478.852234 506.057190,472.855072 
	C506.104156,469.634186 505.044128,467.860382 501.479797,467.893280 
	C492.483215,467.976349 483.482941,467.985443 474.488373,467.808533 
	C470.823181,467.736450 471.034088,470.017273 471.035339,472.421631 
	C471.042480,486.251282 471.066498,500.080994 471.035431,513.910583 
	C471.014984,523.011536 468.919647,525.056152 459.810181,525.061218 
	C457.477448,525.062561 455.121124,525.260925 452.816498,525.003296 
	C446.407715,524.286804 441.865112,525.821777 438.080688,531.991089 
	C433.094360,540.119812 421.194641,542.123169 412.079834,537.839539 
	C403.636932,533.871704 398.168213,523.363403 400.028168,514.681946 
	C402.361786,503.789520 410.119598,496.955078 420.341187,496.643555 
	C429.728119,496.357422 436.997009,499.950104 441.071930,508.539673 
	C442.744873,512.065979 445.346436,511.658966 448.114655,511.650146 
	C458.713196,511.616364 457.602631,512.588867 457.642151,502.410461 
	C457.679047,492.913055 457.430847,483.408081 457.744659,473.920929 
	C457.895905,469.348816 456.455475,467.770203 451.837646,467.814362 
	C442.451721,467.904114 433.184753,466.707367 424.671112,462.357147 
	C405.993744,452.813385 394.831573,432.689026 396.959076,412.639465 
	C399.392090,389.710785 413.068115,373.504364 435.172089,368.073669 
	C439.306824,367.057831 440.908661,365.197571 441.618103,361.289703 
	C448.716095,322.191681 482.528290,296.817902 521.869324,300.943115 
	C552.601013,304.165558 578.679260,328.969849 584.307434,360.540894 
	C585.051086,364.712555 586.431091,367.013824 591.060669,368.190430 
	C615.916687,374.507690 631.159302,396.285095 629.235535,421.956665 
	C627.485840,445.305054 607.355774,465.044830 582.830505,467.464264 
	C581.670166,467.578735 580.511475,467.710663 578.920776,467.851440 
M525.500000,454.043365 
	C544.483887,453.945129 563.491821,454.395416 582.443420,453.562469 
	C595.842957,452.973511 606.089294,445.976288 611.950745,433.611481 
	C623.360779,409.541931 608.902405,383.394775 582.471741,380.036957 
	C573.585754,378.908020 572.363708,377.672882 571.945496,369.398163 
	C570.118835,333.256470 535.277832,307.223846 500.000702,315.642242 
	C474.502319,321.727112 455.246735,343.908997 454.123749,368.491211 
	C453.682373,378.152863 452.675049,379.218445 443.123474,380.127625 
	C427.389679,381.625244 413.943604,393.526947 411.354889,408.247437 
	C408.058197,426.993744 415.341858,442.926086 430.624359,450.295807 
	C436.918274,453.330963 443.642883,454.091766 450.550995,454.075623 
	C475.200531,454.017975 499.850311,454.046997 525.500000,454.043365 
M416.118927,524.366089 
	C416.984497,524.854065 417.809814,525.440674 418.722534,525.813110 
	C423.015778,527.565125 426.297852,525.882874 428.537262,522.306335 
	C430.752502,518.768372 430.075500,515.106750 427.194763,512.249146 
	C424.081207,509.160492 420.339722,509.008667 416.708710,511.462463 
	C412.878479,514.050842 412.536346,518.597656 416.118927,524.366089 
M608.290588,510.926575 
	C603.915405,509.236755 600.054077,509.717590 597.438904,513.963623 
	C595.121033,517.726868 596.301636,522.519104 599.890747,524.990112 
	C603.281982,527.324890 607.954651,526.683472 610.644165,523.513855 
	C613.802429,519.791809 613.196777,515.372070 608.290588,510.926575 
M508.731720,525.037231 
	C510.001831,525.366272 511.259094,525.908630 512.544373,525.986023 
	C517.165527,526.264343 521.143616,522.734314 521.274414,518.398865 
	C521.409546,513.918274 517.815430,510.315460 513.117554,510.133362 
	C509.527649,509.994232 506.861725,511.695740 505.629486,514.811829 
	C504.204559,518.415222 504.575043,522.008972 508.731720,525.037231 
z"/>
<path fill="#000000" opacity="1.000000" stroke="none" 
	d="
M372.113770,271.395630 
	C365.920593,270.109070 362.548920,265.958344 363.256714,261.004395 
	C363.983307,255.919037 368.231445,252.462036 373.448853,252.710312 
	C378.467285,252.949127 382.282562,257.108368 382.289124,262.347595 
	C382.295685,267.607483 378.822845,270.832184 372.113770,271.395630 
z"/>
<path fill="#000000" opacity="1.000000" stroke="none" 
	d="
M427.890869,254.969238 
	C434.403931,261.453613 429.977478,269.482483 424.874146,271.095764 
	C420.427002,272.501587 415.953064,271.047882 413.534149,267.217651 
	C411.082977,263.336334 411.610199,258.665833 414.875854,255.331848 
	C418.100342,252.039871 422.620819,251.815842 427.890869,254.969238 
M419.653137,263.066956 
	C420.933533,264.650543 422.310577,265.025940 423.449036,263.040863 
	C423.945892,262.174530 423.626160,261.006561 422.686401,260.487976 
	C420.557007,259.312958 419.786163,260.583618 419.653137,263.066956 
z"/>
<path fill="#000000" opacity="1.000000" stroke="none" 
	d="
M393.014893,253.548981 
	C397.294098,252.113297 400.969299,252.288315 403.976196,255.435120 
	C407.858917,259.498474 407.620483,265.514313 403.530609,269.243652 
	C399.839966,272.608917 393.132263,272.165710 390.071381,268.354309 
	C386.200012,263.533691 387.171509,258.012329 393.014893,253.548981 
M396.762299,260.032410 
	C394.963684,261.168549 394.683105,262.563477 396.366638,263.940796 
	C397.294830,264.700165 398.324219,264.099915 398.874573,263.223419 
	C399.988800,261.448730 398.960419,260.526794 396.762299,260.032410 
z"/>
</svg>